<svg xmlns="http://www.w3.org/2000/svg" width="192" height="40" viewBox="0 0 192 40"><g transform="translate(-495 -439)"><rect width="192" height="40" rx="20" transform="translate(495 439)" fill="#2bd8b5"/><g transform="translate(39.276)"><text transform="translate(498 465)" fill="#fff" font-size="17" font-family="Poppins-Medium, Poppins" font-weight="500" letter-spacing="0.013em"><tspan x="0" y="0">Rera Approved</tspan></text><path d="M6.116,17.741.264,11.889a.9.9,0,0,1,0-1.273L1.537,9.342a.9.9,0,0,1,1.273,0l3.942,3.942L15.2,4.841a.9.9,0,0,1,1.273,0l1.273,1.273a.9.9,0,0,1,0,1.273L7.389,17.741A.9.9,0,0,1,6.116,17.741Z" transform="translate(473.724 448.336)" fill="#fff"/></g></g></svg>