<svg xmlns="http://www.w3.org/2000/svg" xmlns:xlink="http://www.w3.org/1999/xlink" width="61.123" height="64.34" viewBox="0 0 61.123 64.34"><defs><filter id="a" x="0" y="0" width="61.123" height="64.34" filterUnits="userSpaceOnUse"><feOffset dy="3" input="SourceAlpha"/><feGaussianBlur stdDeviation="3" result="b"/><feFlood flood-opacity="0.161"/><feComposite operator="in" in2="b"/><feComposite in="SourceGraphic"/></filter></defs><g transform="translate(9 6)"><g transform="matrix(1, 0, 0, 1, -9, -6)" filter="url(#a)"><path d="M2.022,0H37.87a2.028,2.028,0,0,1,2.022,2.022V7.71h2.937A.294.294,0,0,1,43.123,8v6.256a.152.152,0,0,1-.152.15h-3.08V19.82h2.937a.294.294,0,0,1,.295.293v6.256a.151.151,0,0,1-.152.15h-3.08V31.93h2.937a.3.3,0,0,1,.295.294V38.48a.152.152,0,0,1-.152.15h-3.08v5.688A2.028,2.028,0,0,1,37.87,46.34H2.022A2.028,2.028,0,0,1,0,44.318V2.022A2.028,2.028,0,0,1,2.022,0ZM5.381,37.565V32.91c2.49-1.108,10.108-3.16,10.472-6.2.077-.694-1.543-3.367-1.916-4.626a2.875,2.875,0,0,1-.709-1.933,11.553,11.553,0,0,1,.092-1.523,1.968,1.968,0,0,1,.407-1.168c.347-.531.2-2.472.2-3.208,0-7.294,12.784-7.3,12.784,0,0,.926-.213,2.621.288,3.344a1.441,1.441,0,0,1,.284.83,10.152,10.152,0,0,1,.124,1.726,2.867,2.867,0,0,1-.709,1.933c-.453,1.321-2.178,3.819-2.028,4.569.548,2.783,7.615,4.651,9.843,5.64l0,5.274Z" transform="translate(9 6)" fill="#fff" fill-rule="evenodd"/></g></g></svg>