<svg xmlns="http://www.w3.org/2000/svg" xmlns:xlink="http://www.w3.org/1999/xlink" width="62.558" height="62.339" viewBox="0 0 62.558 62.339"><defs><filter id="a" x="0" y="0" width="62.558" height="62.339" filterUnits="userSpaceOnUse"><feOffset dy="3" input="SourceAlpha"/><feGaussianBlur stdDeviation="3" result="b"/><feFlood flood-opacity="0.161"/><feComposite operator="in" in2="b"/><feComposite in="SourceGraphic"/></filter></defs><g transform="translate(9 6)"><g transform="matrix(1, 0, 0, 1, -9, -6)" filter="url(#a)"><path d="M12.273,18.226a36.986,36.986,0,0,0,5.466,7.66A31.308,31.308,0,0,0,26.4,32.28a.9.9,0,0,0,.751.04,3.226,3.226,0,0,0,1.041-.762,11.594,11.594,0,0,0,.95-1.164c1.393-1.832,3.115-4.105,5.549-2.967.054.025.094.054.149.076l8.117,4.668c.025.015.054.04.076.054a3.659,3.659,0,0,1,1.523,3.159,8.556,8.556,0,0,1-1.19,4.026,8.243,8.243,0,0,1-3.9,3.449,17.785,17.785,0,0,1-4.813,1.309,16.328,16.328,0,0,1-7.351-.613,32.618,32.618,0,0,1-7.395-3.569l-.192-.123c-1.2-.751-2.5-1.552-3.772-2.5a47.309,47.309,0,0,1-12.5-14.191C.852,18.48-.563,13.414.21,8.586A10.464,10.464,0,0,1,3.753,1.942,9.5,9.5,0,0,1,10.815.056a1.019,1.019,0,0,1,.816.522l5.2,8.8a2.751,2.751,0,0,1,.439,2.945,5.721,5.721,0,0,1-1.991,2.23c-.279.239-.613.482-.965.736-1.164.845-2.488,1.821-2.035,2.967l-.011-.029Z" transform="translate(9 6)" fill="#fff"/></g></g></svg>