<svg xmlns="http://www.w3.org/2000/svg" xmlns:xlink="http://www.w3.org/1999/xlink" width="59.085" height="66.92" viewBox="0 0 59.085 66.92"><defs><filter id="a" x="0" y="0" width="59.085" height="66.92" filterUnits="userSpaceOnUse"><feOffset dy="3" input="SourceAlpha"/><feGaussianBlur stdDeviation="3" result="b"/><feFlood flood-opacity="0.161"/><feComposite operator="in" in2="b"/><feComposite in="SourceGraphic"/></filter></defs><g transform="translate(9 6)"><g transform="matrix(1, 0, 0, 1, -9, -6)" filter="url(#a)"><path d="M6.832,0H39.767a1.322,1.322,0,0,1,1.318,1.318V38.075c-.06,1.027-1.386,1.051-2.819.987H6.346a3.6,3.6,0,1,0,0,7.206H38.266V42.434h2.819v4.873a1.616,1.616,0,0,1-1.612,1.612H6.486A6.5,6.5,0,0,1,0,42.438V6.832A6.851,6.851,0,0,1,6.832,0ZM21.711,5.594A14.453,14.453,0,1,1,7.258,20.047,14.452,14.452,0,0,1,21.711,5.594ZM20.9,14.6a2.473,2.473,0,0,0,.816.127,2.545,2.545,0,0,0,.836-.127,1.765,1.765,0,0,0,.617-.366,1.452,1.452,0,0,0,.39-.541,1.849,1.849,0,0,0,.135-.733,1.9,1.9,0,0,0-.135-.745,1.5,1.5,0,0,0-.39-.549l-.008-.008a1.8,1.8,0,0,0-.617-.37,2.545,2.545,0,0,0-.836-.127,2.4,2.4,0,0,0-.812.127,1.751,1.751,0,0,0-.605.366l-.012.012a1.532,1.532,0,0,0-.39.549,1.882,1.882,0,0,0-.135.745,1.849,1.849,0,0,0,.135.733,1.517,1.517,0,0,0,.366.518c.008.008.02.012.024.02a1.729,1.729,0,0,0,.617.366v0ZM18.359,26.931v2h6.772v-2H24.98a.855.855,0,0,1-.422-.115,1.177,1.177,0,0,1-.311-.243A1.3,1.3,0,0,1,24,26.254a.87.87,0,0,1-.115-.414V17.889a1.383,1.383,0,0,0-.115-.673.15.15,0,0,0-.139-.072H18.287v2.19h.227a.871.871,0,0,1,.426.123,1.044,1.044,0,0,1,.279.227.24.24,0,0,1,.032.032,1.4,1.4,0,0,1,.227.311.888.888,0,0,1,.1.4V25.84a.88.88,0,0,1-.092.378l-.02.036a1.4,1.4,0,0,1-.227.311,1.44,1.44,0,0,1-.307.251.837.837,0,0,1-.426.115h-.151Z" transform="translate(9 6)" fill="#fff" fill-rule="evenodd"/></g></g></svg>