<svg xmlns="http://www.w3.org/2000/svg" xmlns:xlink="http://www.w3.org/1999/xlink" width="77.456" height="63.797" viewBox="0 0 77.456 63.797"><defs><filter id="a" x="0" y="0" width="77.456" height="63.797" filterUnits="userSpaceOnUse"><feOffset dy="3" input="SourceAlpha"/><feGaussianBlur stdDeviation="3" result="b"/><feFlood flood-opacity="0.161"/><feComposite operator="in" in2="b"/><feComposite in="SourceGraphic"/></filter></defs><g transform="translate(9 6)"><g transform="matrix(1, 0, 0, 1, -9, -6)" filter="url(#a)"><path d="M1.171,17.487,25.833,0,50.621,17.487ZM57.414,41.341c1.563.871,1.64,2.245,2.042,3.871H36.507c.4-1.626.479-3,2.042-3.871,2.6-1.452,5.269.01,6.508-3.614A13.48,13.48,0,0,1,44,36.226l-1.064-1.693a3.141,3.141,0,0,1-.6-1.548,1.2,1.2,0,0,1,.106-.552,1.035,1.035,0,0,1,.368-.426,1.163,1.163,0,0,1,.256-.131,26.441,26.441,0,0,1-.048-3.043,4.352,4.352,0,0,1,.131-.692,4.061,4.061,0,0,1,1.8-2.293,5.714,5.714,0,0,1,1.51-.673c.339-.1-.285-1.176.063-1.214,1.689-.174,4.427,1.369,5.608,2.647a4.156,4.156,0,0,1,1.045,2.613L53.1,31.983a.771.771,0,0,1,.561.581,2.4,2.4,0,0,1-.3,1.456.121.121,0,0,1-.019.034l-1.214,2a10.32,10.32,0,0,1-1.49,2.052c2.192,3.164,3.987,1.684,6.769,3.237ZM0,43.01H3.818V40.349h.556V39.081H5.995V23.84H2.681V20.191h46.3v1.756a7.188,7.188,0,0,0-3.2-.542c-1.476.15-2,.9-2.042,1.984-.174.092-.348.2-.523.3a6.9,6.9,0,0,0-1.732,1.548c-1.268,1.616-1.316,3.019-1.287,4.95l.015.614a3.161,3.161,0,0,0-.634,1.326V23.84h-5.1V39.076H36.1v1.05c-.131.092-.261.194-.392.3a5.361,5.361,0,0,0-.89.924,6.784,6.784,0,0,0-.764,1.485,14.657,14.657,0,0,0-.5,1.519,2.123,2.123,0,0,0-.111.682,2.078,2.078,0,0,0,.14.76H0V43.01Zm13.7-2.661h1.868V39.081h1.621V23.84h-5.1V39.076h1.621v1.273Zm11.2,0h1.873V39.081h1.616V23.84h-5.1V39.076H24.9v1.273Zm13.069-1.123v-.15h.5c-.169.048-.339.1-.5.15Zm1.621-.44V33.56a5.641,5.641,0,0,0,.242.9,6.538,6.538,0,0,0,.639,1.21l1.113,1.771c.135.218.276.435.431.668a18.613,18.613,0,0,1-2.216.629l-.208.048ZM17.53,13.079l8.342-6.4,8.39,6.4H17.53Z" transform="translate(9 6)" fill="#fff" fill-rule="evenodd"/></g></g></svg>